# xmcd
#
# Track frame offsets: 
#        150
#        14866
#        31230
#        47046
#        60014
#        80590
#        94426
#        111907
#        133399
#        149403
#        164553
#        180346
#
# Disc length: 2657 seconds
#
# Revision: 0
# Processed by: cddbd v1.5.2PL0 Copyright (c) Steve Scherf et al.
# Submitted via: ExactAudioCopy v1.3
#
DISCID=a90a5f0c
DTITLE=Bryce Janey - Down Home Blues
DYEAR=2011
DGENRE=Blues
TTITLE0=My Little Baby
TTITLE1=Sara Mae
TTITLE2=Little Red Rooster
TTITLE3=Dust Off The Bottle
TTITLE4=Country Fever
TTITLE5=Long Tall Woman
TTITLE6=She's 19 Years Old
TTITLE7=Made In The U.S.A
TTITLE8=Heal The Night
TTITLE9=Gonna Feel Alright
TTITLE10=Gamblin' Man Blues
TTITLE11=Down Home Blues
EXTD=
EXTT0=
EXTT1=
EXTT2=
EXTT3=
EXTT4=
EXTT5=
EXTT6=
EXTT7=
EXTT8=
EXTT9=
EXTT10=
EXTT11=
PLAYORDER=
